<?xml version="1.0" encoding="UTF-8" standalone="no"?><!DOCTYPE svg PUBLIC "-//W3C//DTD SVG 1.1//EN" "http://www.w3.org/Graphics/SVG/1.1/DTD/svg11.dtd"><!-- Generated by graphviz version 2.40.1 (20161225.0304)
 --><!-- Title: %0 Pages: 1 --><svg xmlns="http://www.w3.org/2000/svg" xmlns:xlink="http://www.w3.org/1999/xlink" width="1094pt" height="260pt" viewBox="0.00 0.00 1093.72 260.00">
<g id="graph0" class="graph" transform="scale(1 1) rotate(0) translate(4 256)">
<title>%0</title>
<polygon fill="#ffffff" stroke="transparent" points="-4,4 -4,-256 1089.725,-256 1089.725,4 -4,4"/>
<!-- 0 -->
<g id="node1" class="node">
<title>0</title>
<ellipse fill="none" stroke="#000000" cx="367.2065" cy="-234" rx="110.0141" ry="18"/>
<text text-anchor="middle" x="367.2065" y="-229.8" font-family="Times,serif" font-size="14.00" fill="#000000">WhenProgramStartsNode</text>
</g>
<!-- 1 -->
<g id="node2" class="node">
<title>1</title>
<ellipse fill="none" stroke="#000000" cx="367.2065" cy="-162" rx="183.3413" ry="18"/>
<text text-anchor="middle" x="367.2065" y="-157.8" font-family="Times,serif" font-size="14.00" fill="#000000">SetVariableToNode(variable:'my_variable')</text>
</g>
<!-- 0&#45;&gt;1 -->
<g id="edge1" class="edge">
<title>0-&gt;1</title>
<path fill="none" stroke="#000000" d="M367.2065,-215.8314C367.2065,-208.131 367.2065,-198.9743 367.2065,-190.4166"/>
<polygon fill="#000000" stroke="#000000" points="370.7066,-190.4132 367.2065,-180.4133 363.7066,-190.4133 370.7066,-190.4132"/>
</g>
<!-- 2 -->
<g id="node3" class="node">
<title>2</title>
<ellipse fill="none" stroke="#000000" cx="91.2065" cy="-90" rx="91.4135" ry="18"/>
<text text-anchor="middle" x="91.2065" y="-85.8" font-family="Times,serif" font-size="14.00" fill="#000000">NumericalNode(1.0)</text>
</g>
<!-- 1&#45;&gt;2 -->
<g id="edge2" class="edge">
<title>1-&gt;2</title>
<path fill="none" stroke="#000000" d="M302.4968,-145.1192C258.5029,-133.6425 200.5094,-118.5138 156.411,-107.0099"/>
<polygon fill="#000000" stroke="#000000" points="157.2157,-103.6027 146.656,-104.4651 155.4487,-110.376 157.2157,-103.6027"/>
</g>
<!-- 3 -->
<g id="node4" class="node">
<title>3</title>
<ellipse fill="none" stroke="#000000" cx="643.2065" cy="-90" rx="442.5369" ry="18"/>
<text text-anchor="middle" x="643.2065" y="-85.8" font-family="Times,serif" font-size="14.00" fill="#000000">RunMotorForDurationNode(ports:'['A']', direction:'TurnDirection.CLOCKWISE', unit:'Unit.ROTATIONS',)</text>
</g>
<!-- 1&#45;&gt;3 -->
<g id="edge3" class="edge">
<title>1-&gt;3</title>
<path fill="none" stroke="#000000" d="M431.9163,-145.1192C471.5952,-134.7682 522.6622,-121.4464 564.6516,-110.4926"/>
<polygon fill="#000000" stroke="#000000" points="565.7721,-113.8175 574.5648,-107.9065 564.0051,-107.0442 565.7721,-113.8175"/>
</g>
<!-- 4 -->
<g id="node5" class="node">
<title>4</title>
<ellipse fill="none" stroke="#000000" cx="643.2065" cy="-18" rx="129.0076" ry="18"/>
<text text-anchor="middle" x="643.2065" y="-13.8" font-family="Times,serif" font-size="14.00" fill="#000000">Variable(name:'my_variable')</text>
</g>
<!-- 3&#45;&gt;4 -->
<g id="edge4" class="edge">
<title>3-&gt;4</title>
<path fill="none" stroke="#000000" d="M643.2065,-71.8314C643.2065,-64.131 643.2065,-54.9743 643.2065,-46.4166"/>
<polygon fill="#000000" stroke="#000000" points="646.7066,-46.4132 643.2065,-36.4133 639.7066,-46.4133 646.7066,-46.4132"/>
</g>
</g>
</svg>